<?xml version="1.0" encoding="utf-8"?>
<!-- Generator: Adobe Illustrator 16.0.3, SVG Export Plug-In . SVG Version: 6.00 Build 0)  -->
<!DOCTYPE svg PUBLIC "-//W3C//DTD SVG 1.1//EN" "http://www.w3.org/Graphics/SVG/1.1/DTD/svg11.dtd">
<svg version="1.1" id="Layer_1" xmlns="http://www.w3.org/2000/svg" xmlns:xlink="http://www.w3.org/1999/xlink" x="0px" y="0px"
	 width="181.224px" height="181.226px" viewBox="0 0 181.224 181.226" enable-background="new 0 0 181.224 181.226"
	 xml:space="preserve">
<g>
	<g>
		<path fill="#FFFFFF" d="M90.612,181.226c50.044,0,90.612-40.569,90.612-90.613S140.656,0,90.612,0S0,40.568,0,90.612
			S40.568,181.226,90.612,181.226"/>
	</g>
</g>
<g>
	<path d="M113.208,53.16l-10.429,1.199v56.46c0,9.949-2.637,16.542-8.631,22.536c-4.195,4.315-10.069,6.233-11.148,6.233
		c-3.836,0-6.833-1.318-8.511-2.877c-1.318-1.198-1.558-2.518-1.318-3.716c0.359-1.318,1.798-2.997,2.637-3.717
		c0.839-0.599,1.678-0.719,2.637-0.239c2.518,1.798,5.395,2.757,8.151,2.757c4.555,0,9.35-2.637,9.35-18.82V96.195l-8.271,3.596
		c-0.479,0.24-0.959,0.359-2.038,0.359c-7.432,0-20.498-9.23-20.498-24.693c0-8.151,3.596-15.225,8.511-19.779
		c5.154-4.675,12.347-7.672,18.7-7.672h23.975l0.6,1.559L113.208,53.16z"/>
</g>
</svg>
