<?xml version="1.0" encoding="utf-8"?>
<!-- Generator: Adobe Illustrator 16.0.3, SVG Export Plug-In . SVG Version: 6.00 Build 0)  -->
<!DOCTYPE svg PUBLIC "-//W3C//DTD SVG 1.1//EN" "http://www.w3.org/Graphics/SVG/1.1/DTD/svg11.dtd">
<svg version="1.1" id="Layer_1" xmlns="http://www.w3.org/2000/svg" xmlns:xlink="http://www.w3.org/1999/xlink" x="0px" y="0px"
	 width="512.751px" height="128px" viewBox="0 0 512.751 128" enable-background="new 0 0 512.751 128" xml:space="preserve">
<path fill="#2B2A2A" d="M74.061,87.593v-2.6c4.16-0.521,4.68-0.953,4.68-7.106V63.329c0-6.152-2.687-8.752-6.673-8.752
	c-2.686,0-5.199,1.387-7.539,3.293v20.71c0,5.546,0.52,5.893,4.593,6.413v2.6H49.018v-2.6c5.546-0.693,5.979-0.953,5.979-6.673
	V60.383c0-5.373-0.433-5.633-4.853-6.499v-2.34c4.593-0.606,9.705-1.819,14.385-3.38v6.586c1.733-1.213,3.466-2.513,5.546-3.812
	c2.513-1.646,4.419-2.513,6.932-2.513c6.933,0,11.179,5.025,11.179,13.604v16.465c0,5.632,0.52,5.892,5.286,6.499v2.6H74.061z
	 M127.155,79.533c-5.286,7.366-11.785,9.099-15.078,9.099c-11.178,0-17.504-8.578-17.504-18.544c0-6.325,2.513-11.785,6.152-15.424
	c3.726-3.899,8.492-6.239,13.085-6.239c7.712,0,13.691,6.672,13.691,13.604c0,1.733-0.52,2.772-2.34,3.033
	c-1.56,0.26-12.218,1.039-21.317,1.386c0.26,10.226,5.979,14.991,12.131,14.991c3.38,0,6.672-1.213,9.706-3.985L127.155,79.533z
	 M104.278,62.549c3.986,0,7.799-0.086,11.785-0.26c1.386,0,1.906-0.26,1.993-1.646c0-4.506-2.34-8.839-6.153-8.839
	C108.351,51.804,105.058,55.703,104.278,62.549z M187.424,51.978c-4.246,0.779-4.939,1.56-6.672,6.152
	c-3.033,7.626-6.759,18.371-10.918,30.416h-2.946c-3.379-8.579-6.932-16.812-10.312-25.13c-3.292,8.231-6.499,16.378-9.792,25.13
	h-3.033c-3.379-10.572-6.933-21.058-10.312-30.936c-1.473-4.333-2.167-5.113-6.066-5.633v-2.514h20.191v2.514
	c-5.113,0.866-5.546,1.56-4.506,4.853c1.82,5.893,3.726,12.132,5.546,18.024h0.173c3.12-7.799,6.066-16.118,9.359-25.044h3.033
	c3.12,8.406,6.499,16.725,9.965,25.304h0.173c1.56-4.767,4.16-12.998,5.286-17.765c0.866-3.726,0.433-4.506-5.026-5.372v-2.514
	h15.858V51.978z M250.596,85.34c-1.993,0.346-9.532,1.386-15.685,3.379v-5.286l-5.286,3.293c-2.6,1.56-4.246,1.906-5.199,1.906
	c-7.279,0-17.158-6.152-17.158-18.804c0-11.872,10.398-21.403,23.223-21.403c0.867,0,2.427,0.173,4.419,0.606V37.939
	c0-5.026-0.52-5.373-6.152-5.979v-2.513c5.199-0.606,11.698-1.82,15.685-3.033v50.606c0,4.766,0.52,5.112,3.986,5.546l2.167,0.26
	V85.34z M234.912,56.396c-1.646-3.032-4.419-4.506-7.279-4.506c-2.773,0-9.619,2.687-9.619,15.598
	c0,10.572,6.239,14.991,10.832,14.991c2.08,0,4.073-0.693,6.066-1.993V56.396z M253.794,87.593v-2.6
	c5.199-0.607,5.719-0.953,5.719-7.02V60.556c0-5.546-0.52-5.892-5.026-6.585v-2.427c4.939-0.606,10.139-1.733,14.558-3.206v29.636
	c0,5.893,0.434,6.412,5.806,7.02v2.6H253.794z M258.126,36.727c0-3.12,2.6-5.546,5.546-5.546c3.12,0,5.546,2.426,5.546,5.546
	c0,2.946-2.426,5.459-5.632,5.459C260.727,42.186,258.126,39.673,258.126,36.727z M328.188,87.679
	c-1.56,0.693-2.859,0.953-3.553,0.953c-6.239,0-9.878-3.206-9.878-10.745V53.364h-5.199l-0.52-1.04l2.513-2.86h3.207v-3.812
	c0-7.279-1.82-11.265-7.886-11.179c-4.853,0.087-7.799,4.333-7.712,9.619c0,2.08,0.347,3.727,1.126,5.286
	c0.52,0.173,0.954,0.347,1.3,0.52c0.867,1.993,1.733,5.979,1.993,7.799l-2.513,0.953c-2.34-4.506-5.113-7.105-8.406-7.105
	c-2.6,0-4.679,2.166-4.679,5.199s2.167,5.113,6.326,6.933c6.846,3.033,11.612,6.065,11.612,12.479
	c0,8.492-8.146,12.478-15.598,12.478c-4.592,0-8.925-1.732-10.658-3.119c-0.52-1.387-1.213-7.539-1.387-11.179l2.427-0.606
	c1.906,5.633,6.239,11.698,11.525,11.698c2.946,0,5.373-1.993,5.373-5.286c0-3.119-1.906-5.199-6.933-7.712
	c-4.419-2.08-10.485-5.199-10.485-12.045c0-6.586,5.199-11.872,13.951-11.958c1.04,0,1.82,0,2.6,0.173
	c-0.953-1.733-1.473-3.293-1.473-5.372c0-7.799,6.326-13.345,14.472-13.345c8.318,0,14.558,3.639,14.558,15.511v4.072h9.012
	c0.693,0.867,0.433,3.293-0.606,3.9h-8.406v21.49c0,6.846,3.033,8.059,5.026,8.059c1.646,0,3.293-0.52,4.766-1.127l0.78,2.687
	L328.188,87.679z M353.899,57.61c2.946-5.113,6.499-9.186,10.052-9.186c3.293,0,5.546,2.34,5.546,5.025
	c0,2.514-1.646,4.767-3.726,5.546c-1.126,0.434-1.993,0.26-2.513-0.26c-1.474-1.213-2.513-1.819-3.9-1.819
	c-1.906,0-3.986,1.646-5.632,5.632V78.58c0,5.46,0.433,5.893,7.105,6.413v2.6h-22.357v-2.6c4.939-0.521,5.719-0.953,5.719-6.413
	V59.949c0-4.853-0.52-5.199-4.939-6.065v-2.253c4.853-0.693,9.532-1.733,14.471-3.38v9.359H353.899z M372.114,87.593v-2.6
	c5.199-0.607,5.719-0.953,5.719-7.02V60.556c0-5.546-0.52-5.892-5.026-6.585v-2.427c4.939-0.606,10.139-1.733,14.558-3.206v29.636
	c0,5.893,0.433,6.412,5.806,7.02v2.6H372.114z M376.447,36.727c0-3.12,2.6-5.546,5.546-5.546c3.12,0,5.546,2.426,5.546,5.546
	c0,2.946-2.426,5.459-5.632,5.459C379.046,42.186,376.447,39.673,376.447,36.727z M427.548,79.447
	c-3.899,5.372-9.619,9.185-14.818,9.185c-11.525,0-18.284-8.925-18.284-18.284c0-6.499,3.12-12.478,8.752-16.724
	c5.199-3.899,10.745-5.199,14.125-5.199c3.207,0,6.066,0.953,7.539,2.166c1.213,0.953,1.56,1.819,1.56,2.946
	c-0.087,2.253-2.167,4.419-3.466,4.419c-0.52,0-1.04-0.26-1.82-0.953c-3.206-2.859-6.066-4.159-8.752-4.159
	c-4.246,0-8.492,3.812-8.492,13.085c0,11.698,8.232,15.511,12.392,15.511c3.639,0,6.239-0.953,9.705-3.985L427.548,79.447z
	 M448.986,87.593c-1.473,0.692-2.859,1.039-3.553,1.039c-6.239,0-9.792-3.206-9.792-10.745V53.364h-5.633l-0.433-1.04l2.426-2.86
	h3.64v-6.325l8.319-6.412l1.126,0.433v12.305h9.012c0.953,0.867,0.78,3.207-0.52,3.9h-8.492v21.663c0,6.846,3.12,7.799,5.026,7.799
	c1.733,0,3.293-0.52,4.68-1.126l0.866,2.686L448.986,87.593z M460.339,82.566c0-3.38,2.513-5.893,5.806-5.893
	c3.379,0,5.892,2.513,5.892,5.893c0,3.64-2.513,6.065-5.892,6.065C462.852,88.632,460.339,86.206,460.339,82.566z"/>
<g>
	<rect x="3.25" y="3.75" fill="none" stroke="#2B2A2A" stroke-width="6.5" width="506" height="121"/>
</g>
</svg>
