<?xml version="1.0" encoding="utf-8"?>
<!-- Generator: Adobe Illustrator 16.0.3, SVG Export Plug-In . SVG Version: 6.00 Build 0)  -->
<!DOCTYPE svg PUBLIC "-//W3C//DTD SVG 1.1//EN" "http://www.w3.org/Graphics/SVG/1.1/DTD/svg11.dtd">
<svg version="1.1" id="Layer_1" xmlns="http://www.w3.org/2000/svg" xmlns:xlink="http://www.w3.org/1999/xlink" x="0px" y="0px"
	 width="424px" height="63px" viewBox="0 0 424 63" enable-background="new 0 0 424 63" xml:space="preserve">
<path fill="#2B2A2A" d="M25.043,61.178v-2.6c4.159-0.52,4.679-0.953,4.679-7.105V36.914c0-6.152-2.686-8.752-6.672-8.752
	c-2.686,0-5.199,1.387-7.539,3.293v20.711c0,5.546,0.52,5.893,4.593,6.412v2.6H0v-2.6c5.546-0.693,5.979-0.953,5.979-6.672V33.968
	c0-5.372-0.434-5.632-4.853-6.499V25.13c4.593-0.607,9.706-1.82,14.385-3.38v6.586c1.733-1.214,3.466-2.514,5.546-3.813
	c2.513-1.646,4.419-2.513,6.933-2.513c6.932,0,11.178,5.026,11.178,13.604v16.465c0,5.633,0.52,5.893,5.286,6.499v2.6H25.043z
	 M78.138,53.119c-5.286,7.365-11.785,9.099-15.078,9.099c-11.179,0-17.504-8.579-17.504-18.544c0-6.326,2.513-11.785,6.152-15.425
	c3.727-3.899,8.492-6.239,13.085-6.239c7.712,0,13.691,6.673,13.691,13.604c0,1.733-0.52,2.773-2.339,3.033
	c-1.56,0.26-12.219,1.04-21.317,1.387c0.26,10.226,5.979,14.991,12.132,14.991c3.379,0,6.672-1.213,9.705-3.986L78.138,53.119z
	 M55.261,36.135c3.986,0,7.799-0.087,11.785-0.26c1.387,0,1.907-0.261,1.993-1.646c0-4.506-2.339-8.839-6.152-8.839
	C59.334,25.39,56.041,29.289,55.261,36.135z M138.407,25.562c-4.246,0.78-4.939,1.56-6.672,6.152
	c-3.033,7.626-6.759,18.371-10.918,30.416h-2.946c-3.38-8.579-6.933-16.811-10.312-25.13c-3.293,8.232-6.499,16.378-9.792,25.13
	h-3.033C91.353,51.56,87.8,41.074,84.421,31.195c-1.473-4.333-2.167-5.112-6.066-5.633V23.05h20.19v2.513
	c-5.113,0.867-5.546,1.56-4.506,4.853c1.82,5.893,3.726,12.132,5.546,18.024h0.173c3.12-7.799,6.066-16.117,9.358-25.043h3.033
	c3.12,8.405,6.499,16.725,9.965,25.303h0.173c1.56-4.766,4.159-12.998,5.286-17.764c0.867-3.727,0.434-4.506-5.026-5.373V23.05
	h15.858V25.562z M201.579,58.925c-1.993,0.347-9.532,1.387-15.685,3.38v-5.286l-5.286,3.293c-2.6,1.56-4.246,1.906-5.199,1.906
	c-7.279,0-17.158-6.152-17.158-18.804c0-11.872,10.399-21.404,23.224-21.404c0.867,0,2.426,0.174,4.419,0.606V11.524
	c0-5.025-0.52-5.372-6.152-5.979V3.032C184.941,2.426,191.44,1.213,195.426,0v50.605c0,4.767,0.52,5.113,3.986,5.546l2.167,0.261
	V58.925z M185.895,29.982c-1.646-3.033-4.419-4.506-7.279-4.506c-2.773,0-9.619,2.686-9.619,15.598
	c0,10.571,6.239,14.991,10.832,14.991c2.08,0,4.073-0.693,6.066-1.993V29.982z M204.777,61.178v-2.6
	c5.199-0.606,5.719-0.953,5.719-7.019V34.142c0-5.546-0.52-5.893-5.026-6.586V25.13c4.939-0.607,10.139-1.733,14.558-3.207V51.56
	c0,5.893,0.433,6.412,5.806,7.019v2.6H204.777z M209.109,10.312c0-3.119,2.6-5.546,5.546-5.546c3.12,0,5.546,2.427,5.546,5.546
	c0,2.946-2.426,5.459-5.632,5.459C211.709,15.771,209.109,13.258,209.109,10.312z M279.17,61.265
	c-1.56,0.693-2.86,0.953-3.553,0.953c-6.239,0-9.879-3.206-9.879-10.745V26.949h-5.199l-0.52-1.04l2.513-2.859h3.206v-3.812
	c0-7.279-1.82-11.266-7.885-11.179c-4.853,0.087-7.799,4.333-7.712,9.618c0,2.08,0.347,3.727,1.126,5.286
	c0.52,0.174,0.953,0.347,1.3,0.521c0.867,1.993,1.733,5.979,1.993,7.799l-2.513,0.953c-2.34-4.506-5.112-7.105-8.405-7.105
	c-2.6,0-4.68,2.166-4.68,5.199c0,3.032,2.167,5.112,6.326,6.932c6.846,3.033,11.611,6.066,11.611,12.479
	c0,8.492-8.146,12.479-15.598,12.479c-4.593,0-8.925-1.733-10.659-3.12c-0.52-1.386-1.213-7.538-1.386-11.178l2.426-0.606
	c1.906,5.632,6.239,11.698,11.525,11.698c2.946,0,5.373-1.993,5.373-5.286c0-3.12-1.906-5.199-6.932-7.712
	c-4.419-2.08-10.485-5.199-10.485-12.046c0-6.585,5.199-11.871,13.952-11.958c1.04,0,1.82,0,2.6,0.174
	c-0.953-1.733-1.473-3.293-1.473-5.373c0-7.799,6.326-13.345,14.471-13.345c8.319,0,14.558,3.64,14.558,15.511v4.073h9.012
	c0.693,0.866,0.433,3.293-0.607,3.899h-8.405v21.49c0,6.846,3.033,8.059,5.026,8.059c1.646,0,3.293-0.52,4.766-1.126l0.78,2.687
	L279.17,61.265z M304.881,31.195c2.946-5.112,6.5-9.186,10.052-9.186c3.293,0,5.546,2.34,5.546,5.026
	c0,2.513-1.646,4.766-3.726,5.546c-1.126,0.433-1.993,0.26-2.513-0.26c-1.473-1.214-2.513-1.82-3.899-1.82
	c-1.906,0-3.986,1.646-5.632,5.633v16.031c0,5.459,0.433,5.893,7.105,6.412v2.6h-22.357v-2.6c4.939-0.52,5.719-0.953,5.719-6.412
	V33.535c0-4.853-0.52-5.199-4.939-6.066v-2.253c4.853-0.693,9.532-1.732,14.472-3.379v9.358H304.881z M323.097,61.178v-2.6
	c5.199-0.606,5.719-0.953,5.719-7.019V34.142c0-5.546-0.52-5.893-5.026-6.586V25.13c4.939-0.607,10.139-1.733,14.558-3.207V51.56
	c0,5.893,0.433,6.412,5.806,7.019v2.6H323.097z M327.43,10.312c0-3.119,2.6-5.546,5.546-5.546c3.119,0,5.546,2.427,5.546,5.546
	c0,2.946-2.427,5.459-5.633,5.459C330.029,15.771,327.43,13.258,327.43,10.312z M378.53,53.032
	c-3.899,5.373-9.619,9.186-14.818,9.186c-11.525,0-18.284-8.926-18.284-18.284c0-6.499,3.12-12.479,8.752-16.725
	c5.2-3.899,10.746-5.199,14.125-5.199c3.206,0,6.066,0.953,7.539,2.167c1.213,0.953,1.56,1.819,1.56,2.945
	c-0.086,2.254-2.167,4.42-3.466,4.42c-0.52,0-1.04-0.26-1.819-0.953c-3.207-2.859-6.066-4.159-8.752-4.159
	c-4.246,0-8.492,3.812-8.492,13.084c0,11.699,8.232,15.512,12.392,15.512c3.64,0,6.239-0.953,9.706-3.986L378.53,53.032z
	 M399.969,61.178c-1.473,0.693-2.86,1.04-3.553,1.04c-6.239,0-9.792-3.206-9.792-10.745V26.949h-5.633l-0.433-1.04l2.426-2.859h3.64
	v-6.326l8.318-6.412l1.127,0.434V23.05h9.012c0.953,0.866,0.78,3.206-0.52,3.899h-8.492v21.664c0,6.846,3.119,7.799,5.026,7.799
	c1.733,0,3.293-0.521,4.679-1.127l0.867,2.687L399.969,61.178z M411.322,56.151c0-3.379,2.513-5.892,5.806-5.892
	c3.379,0,5.893,2.513,5.893,5.892c0,3.64-2.513,6.066-5.893,6.066C413.834,62.218,411.322,59.791,411.322,56.151z"/>
</svg>
