<?xml version="1.0" encoding="utf-8"?>
<!-- Generator: Adobe Illustrator 16.0.3, SVG Export Plug-In . SVG Version: 6.00 Build 0)  -->
<!DOCTYPE svg PUBLIC "-//W3C//DTD SVG 1.1//EN" "http://www.w3.org/Graphics/SVG/1.1/DTD/svg11.dtd">
<svg version="1.1" id="Layer_1" xmlns="http://www.w3.org/2000/svg" xmlns:xlink="http://www.w3.org/1999/xlink" x="0px" y="0px"
	 width="51.785px" height="91.583px" viewBox="0 0 51.785 91.583" enable-background="new 0 0 51.785 91.583" xml:space="preserve">
<g>
	<path fill="#FFFFFF" d="M48.069,5.154L37.64,6.354v56.46c0,9.949-2.637,16.542-8.631,22.536
		c-4.195,4.315-10.069,6.233-11.148,6.233c-3.836,0-6.833-1.318-8.511-2.877c-1.318-1.198-1.558-2.518-1.318-3.716
		c0.359-1.318,1.798-2.997,2.637-3.717c0.839-0.599,1.678-0.719,2.637-0.239c2.518,1.798,5.395,2.757,8.151,2.757
		c4.555,0,9.35-2.637,9.35-18.82V48.189l-8.271,3.596c-0.479,0.24-0.959,0.359-2.038,0.359C13.066,52.145,0,42.914,0,27.451
		C0,19.3,3.596,12.227,8.511,7.672C13.665,2.997,20.857,0,27.211,0h23.975l0.6,1.559L48.069,5.154z"/>
</g>
</svg>
