<?xml version="1.0" encoding="utf-8"?>
<!-- Generator: Adobe Illustrator 16.0.3, SVG Export Plug-In . SVG Version: 6.00 Build 0)  -->
<!DOCTYPE svg PUBLIC "-//W3C//DTD SVG 1.1//EN" "http://www.w3.org/Graphics/SVG/1.1/DTD/svg11.dtd">
<svg version="1.1" id="Layer_1" xmlns="http://www.w3.org/2000/svg" xmlns:xlink="http://www.w3.org/1999/xlink" x="0px" y="0px"
	 width="32px" height="32px" viewBox="0 0 32 32" enable-background="new 0 0 32 32" xml:space="preserve">
<path fill="#FFFFFF" d="M16,0C7.163,0,0,7.163,0,16s7.163,16,16,16s16-7.163,16-16S24.837,0,16,0z M17.551,21.379
	c-1.454-0.113-2.064-0.833-3.203-1.525c-0.627,3.287-1.393,6.438-3.661,8.084c-0.7-4.968,1.028-8.698,1.83-12.66
	c-1.368-2.303,0.165-6.939,3.051-5.796c3.551,1.405-3.075,8.563,1.374,9.458c4.644,0.933,6.539-8.059,3.66-10.982
	C16.441,3.735,8.49,7.861,9.467,13.906c0.238,1.478,1.765,1.926,0.61,3.966c-2.663-0.59-3.458-2.691-3.356-5.491
	c0.165-4.584,4.118-7.793,8.084-8.236c5.015-0.561,9.722,1.841,10.372,6.559c0.732,5.325-2.264,11.092-7.627,10.677L17.551,21.379z"
	/>
</svg>
