<?xml version="1.0" encoding="utf-8"?>
<!-- Generator: Adobe Illustrator 16.0.3, SVG Export Plug-In . SVG Version: 6.00 Build 0)  -->
<!DOCTYPE svg PUBLIC "-//W3C//DTD SVG 1.1//EN" "http://www.w3.org/Graphics/SVG/1.1/DTD/svg11.dtd">
<svg version="1.1" id="Layer_1" xmlns="http://www.w3.org/2000/svg" xmlns:xlink="http://www.w3.org/1999/xlink" x="0px" y="0px"
	 width="78px" height="78px" viewBox="0 0 78 78" enable-background="new 0 0 78 78" xml:space="preserve">
<path fill="#FFFFFF" d="M34.901,38.31c-0.13-0.35-0.31-0.66-0.54-0.94c-0.23-0.28-0.51-0.5-0.84-0.67
	c-0.33-0.16-0.69-0.25-1.07-0.25s-0.74,0.09-1.07,0.25c-0.33,0.17-0.61,0.39-0.84,0.67c-0.23,0.28-0.41,0.59-0.54,0.94
	c-0.14,0.35-0.2,0.71-0.2,1.08c0,0.35,0.07,0.7,0.2,1.06c0.14,0.37,0.32,0.7,0.56,1.01c0.24,0.3,0.52,0.55,0.84,0.75
	c0.32,0.19,0.67,0.29,1.05,0.29s0.73-0.1,1.05-0.29c0.32-0.2,0.6-0.45,0.84-0.75c0.24-0.31,0.42-0.64,0.56-1.01
	c0.13-0.36,0.2-0.71,0.2-1.06C35.101,39.02,35.041,38.66,34.901,38.31z M34.901,38.31c-0.13-0.35-0.31-0.66-0.54-0.94
	c-0.23-0.28-0.51-0.5-0.84-0.67c-0.33-0.16-0.69-0.25-1.07-0.25s-0.74,0.09-1.07,0.25c-0.33,0.17-0.61,0.39-0.84,0.67
	c-0.23,0.28-0.41,0.59-0.54,0.94c-0.14,0.35-0.2,0.71-0.2,1.08c0,0.35,0.07,0.7,0.2,1.06c0.14,0.37,0.32,0.7,0.56,1.01
	c0.24,0.3,0.52,0.55,0.84,0.75c0.32,0.19,0.67,0.29,1.05,0.29s0.73-0.1,1.05-0.29c0.32-0.2,0.6-0.45,0.84-0.75
	c0.24-0.31,0.42-0.64,0.56-1.01c0.13-0.36,0.2-0.71,0.2-1.06C35.101,39.02,35.041,38.66,34.901,38.31z M39.001,0
	c-21.54,0-39,17.46-39,39s17.46,39,39,39s39-17.46,39-39S60.541,0,39.001,0z M27.541,44h-4.26v-9.05h1.77v7.51h2.49V44z
	 M36.601,41.31c-0.22,0.58-0.53,1.08-0.92,1.51c-0.39,0.44-0.87,0.78-1.42,1.04c-0.55,0.25-1.15,0.38-1.81,0.38
	c-0.66,0-1.27-0.13-1.82-0.38c-0.55-0.26-1.02-0.6-1.41-1.04c-0.39-0.43-0.7-0.93-0.92-1.51s-0.33-1.2-0.33-1.85
	c0-0.63,0.11-1.23,0.33-1.81c0.22-0.57,0.53-1.08,0.92-1.52c0.39-0.43,0.86-0.78,1.41-1.03c0.55-0.26,1.16-0.39,1.82-0.39
	c0.66,0,1.26,0.13,1.81,0.39c0.55,0.25,1.03,0.6,1.42,1.03c0.39,0.44,0.7,0.95,0.92,1.52c0.22,0.58,0.33,1.18,0.33,1.81
	C36.931,40.11,36.821,40.73,36.601,41.31z M46.081,39.42c0,0.64-0.08,1.25-0.24,1.83c-0.17,0.58-0.42,1.09-0.76,1.53
	c-0.34,0.45-0.77,0.8-1.28,1.06c-0.52,0.27-1.13,0.4-1.83,0.4c-0.67,0-1.26-0.13-1.79-0.39c-0.53-0.26-0.98-0.61-1.36-1.04
	c-0.37-0.43-0.66-0.93-0.86-1.5c-0.2-0.58-0.3-1.17-0.3-1.8c0-0.65,0.1-1.26,0.31-1.84s0.5-1.09,0.89-1.52
	c0.38-0.44,0.85-0.79,1.39-1.05c0.54-0.26,1.15-0.39,1.82-0.39c0.78,0,1.48,0.19,2.11,0.56s1.12,0.91,1.47,1.6l-1.56,0.84
	c-0.18-0.41-0.46-0.75-0.82-1.02c-0.36-0.28-0.77-0.42-1.24-0.42c-0.43,0-0.8,0.1-1.12,0.3c-0.32,0.19-0.59,0.45-0.8,0.76
	s-0.37,0.66-0.47,1.04c-0.11,0.39-0.16,0.77-0.16,1.14c0,0.38,0.06,0.75,0.16,1.13c0.11,0.38,0.27,0.72,0.48,1.02
	c0.22,0.3,0.48,0.55,0.8,0.74c0.32,0.19,0.69,0.28,1.12,0.28c0.27,0,0.53-0.06,0.78-0.17c0.25-0.11,0.46-0.26,0.65-0.45
	s0.34-0.4,0.45-0.65c0.11-0.25,0.17-0.51,0.18-0.78h-1.92v-1.44h3.9V39.42z M55.451,41.31c-0.22,0.58-0.53,1.08-0.92,1.51
	c-0.39,0.44-0.86,0.78-1.42,1.04c-0.55,0.25-1.15,0.38-1.81,0.38s-1.27-0.13-1.82-0.38c-0.54-0.26-1.01-0.6-1.41-1.04
	c-0.39-0.43-0.69-0.93-0.91-1.51c-0.22-0.58-0.33-1.2-0.33-1.85c0-0.63,0.11-1.23,0.33-1.81c0.22-0.57,0.52-1.08,0.91-1.52
	c0.4-0.43,0.87-0.78,1.41-1.03c0.55-0.26,1.16-0.39,1.82-0.39s1.26,0.13,1.81,0.39c0.56,0.25,1.03,0.6,1.42,1.03
	c0.39,0.44,0.7,0.95,0.92,1.52c0.22,0.58,0.33,1.18,0.33,1.81C55.781,40.11,55.671,40.73,55.451,41.31z M53.211,37.37
	c-0.23-0.28-0.51-0.5-0.84-0.67c-0.33-0.16-0.68-0.25-1.07-0.25c-0.38,0-0.74,0.09-1.07,0.25c-0.32,0.17-0.6,0.39-0.84,0.67
	c-0.23,0.28-0.41,0.59-0.54,0.94c-0.13,0.35-0.2,0.71-0.2,1.08c0,0.35,0.07,0.7,0.2,1.06c0.14,0.37,0.33,0.7,0.56,1.01
	c0.24,0.3,0.52,0.55,0.84,0.75c0.33,0.19,0.68,0.29,1.05,0.29c0.38,0,0.73-0.1,1.05-0.29c0.33-0.2,0.61-0.45,0.84-0.75
	c0.24-0.31,0.42-0.64,0.56-1.01c0.14-0.36,0.2-0.71,0.2-1.06c0-0.37-0.06-0.73-0.19-1.08C53.621,37.96,53.441,37.65,53.211,37.37z
	 M34.361,37.37c-0.23-0.28-0.51-0.5-0.84-0.67c-0.33-0.16-0.69-0.25-1.07-0.25s-0.74,0.09-1.07,0.25c-0.33,0.17-0.61,0.39-0.84,0.67
	c-0.23,0.28-0.41,0.59-0.54,0.94c-0.14,0.35-0.2,0.71-0.2,1.08c0,0.35,0.07,0.7,0.2,1.06c0.14,0.37,0.32,0.7,0.56,1.01
	c0.24,0.3,0.52,0.55,0.84,0.75c0.32,0.19,0.67,0.29,1.05,0.29s0.73-0.1,1.05-0.29c0.32-0.2,0.6-0.45,0.84-0.75
	c0.24-0.31,0.42-0.64,0.56-1.01c0.13-0.36,0.2-0.71,0.2-1.06c0-0.37-0.06-0.73-0.2-1.08C34.771,37.96,34.591,37.65,34.361,37.37z
	 M34.901,38.31c-0.13-0.35-0.31-0.66-0.54-0.94c-0.23-0.28-0.51-0.5-0.84-0.67c-0.33-0.16-0.69-0.25-1.07-0.25s-0.74,0.09-1.07,0.25
	c-0.33,0.17-0.61,0.39-0.84,0.67c-0.23,0.28-0.41,0.59-0.54,0.94c-0.14,0.35-0.2,0.71-0.2,1.08c0,0.35,0.07,0.7,0.2,1.06
	c0.14,0.37,0.32,0.7,0.56,1.01c0.24,0.3,0.52,0.55,0.84,0.75c0.32,0.19,0.67,0.29,1.05,0.29s0.73-0.1,1.05-0.29
	c0.32-0.2,0.6-0.45,0.84-0.75c0.24-0.31,0.42-0.64,0.56-1.01c0.13-0.36,0.2-0.71,0.2-1.06C35.101,39.02,35.041,38.66,34.901,38.31z
	 M34.901,38.31c-0.13-0.35-0.31-0.66-0.54-0.94c-0.23-0.28-0.51-0.5-0.84-0.67c-0.33-0.16-0.69-0.25-1.07-0.25s-0.74,0.09-1.07,0.25
	c-0.33,0.17-0.61,0.39-0.84,0.67c-0.23,0.28-0.41,0.59-0.54,0.94c-0.14,0.35-0.2,0.71-0.2,1.08c0,0.35,0.07,0.7,0.2,1.06
	c0.14,0.37,0.32,0.7,0.56,1.01c0.24,0.3,0.52,0.55,0.84,0.75c0.32,0.19,0.67,0.29,1.05,0.29s0.73-0.1,1.05-0.29
	c0.32-0.2,0.6-0.45,0.84-0.75c0.24-0.31,0.42-0.64,0.56-1.01c0.13-0.36,0.2-0.71,0.2-1.06C35.101,39.02,35.041,38.66,34.901,38.31z"
	/>
</svg>
