<?xml version="1.0" encoding="utf-8"?>
<!-- Generator: Adobe Illustrator 16.0.3, SVG Export Plug-In . SVG Version: 6.00 Build 0)  -->
<!DOCTYPE svg PUBLIC "-//W3C//DTD SVG 1.1//EN" "http://www.w3.org/Graphics/SVG/1.1/DTD/svg11.dtd">
<svg version="1.1" id="Layer_1" xmlns="http://www.w3.org/2000/svg" xmlns:xlink="http://www.w3.org/1999/xlink" x="0px" y="0px"
	 width="42.81px" height="55.58px" viewBox="0 0 42.81 55.58" enable-background="new 0 0 42.81 55.58" xml:space="preserve">
<g>
	<g>
		<path fill="#FFFFFF" d="M22.68,0C11.59,0,2.56,9.03,2.56,20.12c0,5.51,2.27,10.78,6.26,14.58L0.48,49.92L0,50.8l0.88,0.48
			l6.96,3.82l0.88,0.48L9.2,54.7l8.29-15.13c1.69,0.45,3.43,0.68,5.19,0.68c11.1,0,20.13-9.03,20.13-20.13
			C42.81,9.03,33.78,0,22.68,0z M22.68,31.75c-6.41,0-11.63-5.21-11.63-11.63c0-6.41,5.22-11.63,11.63-11.63
			c6.42,0,11.63,5.22,11.63,11.63C34.31,26.54,29.1,31.75,22.68,31.75z"/>
	</g>
</g>
</svg>
