<?xml version="1.0" encoding="utf-8"?>
<!-- Generator: Adobe Illustrator 16.0.3, SVG Export Plug-In . SVG Version: 6.00 Build 0)  -->
<!DOCTYPE svg PUBLIC "-//W3C//DTD SVG 1.1//EN" "http://www.w3.org/Graphics/SVG/1.1/DTD/svg11.dtd">
<svg version="1.1" id="Layer_1" xmlns="http://www.w3.org/2000/svg" xmlns:xlink="http://www.w3.org/1999/xlink" x="0px" y="0px"
	 width="40.451px" height="53.225px" viewBox="0 0 40.451 53.225" enable-background="new 0 0 40.451 53.225" xml:space="preserve">
<g>
	<path fill="#FFFFFF" d="M21.327,0C10.781,0,2.202,8.581,2.202,19.125c0,5.716,2.525,10.861,6.517,14.369L0,49.407l6.964,3.817
		l8.675-15.835c1.797,0.558,3.71,0.86,5.688,0.86c10.542,0,19.124-8.581,19.124-19.125S31.869,0,21.327,0z M21.327,31.755
		c-6.965,0-12.63-5.667-12.63-12.63c0-6.965,5.665-12.631,12.63-12.631s12.629,5.666,12.629,12.631
		C33.956,26.088,28.292,31.755,21.327,31.755z"/>
</g>
</svg>
