<?xml version="1.0" encoding="utf-8"?>
<!-- Generator: Adobe Illustrator 16.0.3, SVG Export Plug-In . SVG Version: 6.00 Build 0)  -->
<!DOCTYPE svg PUBLIC "-//W3C//DTD SVG 1.1//EN" "http://www.w3.org/Graphics/SVG/1.1/DTD/svg11.dtd">
<svg version="1.1" id="Layer_1" xmlns="http://www.w3.org/2000/svg" xmlns:xlink="http://www.w3.org/1999/xlink" x="0px" y="0px"
	 width="45.17px" height="57.94px" viewBox="0 0 45.17 57.94" enable-background="new 0 0 45.17 57.94" xml:space="preserve">
<g>
	<g>
		<path fill="#FFFFFF" d="M24.04,0C12.4,0,2.92,9.47,2.92,21.12c0,5.53,2.18,10.82,6.02,14.76L0.96,50.44L0,52.2l1.75,0.96
			l6.97,3.82l1.75,0.96l0.96-1.76l7.92-14.46c1.54,0.35,3.11,0.53,4.69,0.53c11.65,0,21.13-9.48,21.13-21.13
			C45.17,9.47,35.69,0,24.04,0z M24.04,31.75c-5.86,0-10.63-4.77-10.63-10.63c0-5.86,4.77-10.63,10.63-10.63s10.63,4.77,10.63,10.63
			C34.67,26.98,29.9,31.75,24.04,31.75z"/>
	</g>
</g>
</svg>
