<?xml version="1.0" encoding="utf-8"?>
<!-- Generator: Adobe Illustrator 16.0.3, SVG Export Plug-In . SVG Version: 6.00 Build 0)  -->
<!DOCTYPE svg PUBLIC "-//W3C//DTD SVG 1.1//EN" "http://www.w3.org/Graphics/SVG/1.1/DTD/svg11.dtd">
<svg version="1.1" id="Layer_1" xmlns="http://www.w3.org/2000/svg" xmlns:xlink="http://www.w3.org/1999/xlink" x="0px" y="0px"
	 width="32px" height="32px" viewBox="0 0 32 32" enable-background="new 0 0 32 32" xml:space="preserve">
<path fill="#FFFFFF" d="M16,0C7.163,0,0,7.163,0,16s7.163,16,16,16s16-7.163,16-16S24.837,0,16,0z M25.195,11.284
	c0.009,0.203,0.014,0.408,0.014,0.614c0,6.269-4.771,13.499-13.499,13.499c-2.679,0-5.173-0.785-7.273-2.131
	c0.371,0.043,0.749,0.065,1.132,0.065c2.223,0,4.268-0.759,5.892-2.031c-2.076-0.038-3.828-1.409-4.432-3.295
	c0.29,0.056,0.587,0.085,0.893,0.085c0.433,0,0.852-0.058,1.25-0.166c-2.17-0.436-3.806-2.354-3.806-4.652c0-0.02,0-0.04,0-0.06
	c0.64,0.355,1.371,0.569,2.149,0.593c-1.273-0.851-2.111-2.303-2.111-3.949c0-0.869,0.234-1.684,0.642-2.385
	c2.34,2.87,5.836,4.759,9.779,4.957c-0.081-0.347-0.123-0.709-0.123-1.081c0-2.62,2.124-4.744,4.743-4.744
	c1.365,0,2.599,0.576,3.464,1.498c1.081-0.213,2.096-0.608,3.013-1.151c-0.354,1.108-1.107,2.038-2.086,2.625
	c0.96-0.115,1.874-0.37,2.725-0.747c-0.636,0.951-1.439,1.787-2.367,2.456H25.195z"/>
</svg>
